<?xml version="1.0" encoding="UTF-8" standalone="no"?>
<!-- Created with Inkscape (http://www.inkscape.org/) -->

<svg
   xmlns:dc="http://purl.org/dc/elements/1.1/"
   xmlns:cc="http://creativecommons.org/ns#"
   xmlns:rdf="http://www.w3.org/1999/02/22-rdf-syntax-ns#"
   xmlns:svg="http://www.w3.org/2000/svg"
   xmlns="http://www.w3.org/2000/svg"
   xmlns:sodipodi="http://sodipodi.sourceforge.net/DTD/sodipodi-0.dtd"
   xmlns:inkscape="http://www.inkscape.org/namespaces/inkscape"
   id="svg4136"
   version="1.1"
   inkscape:version="0.91 r13725"
   xml:space="preserve"
   width="37mm"
   height="52mm"
   viewBox="0 0 131.10236 184.25197"
   sodipodi:docname="7seg-toplayer.svg"><metadata
     id="metadata4142"><rdf:RDF><cc:Work
         rdf:about=""><dc:format>image/svg+xml</dc:format><dc:type
           rdf:resource="http://purl.org/dc/dcmitype/StillImage" /><dc:title></dc:title></cc:Work></rdf:RDF></metadata><defs
     id="defs4140"><clipPath
       clipPathUnits="userSpaceOnUse"
       id="clipPath4152"><path
         d="m 0,0 595.22,0 0,842 L 0,842 0,0 Z"
         id="path4154"
         inkscape:connector-curvature="0" /></clipPath><clipPath
       clipPathUnits="userSpaceOnUse"
       id="clipPath4164"><path
         d="m 70.819,810.636 0,-48.848 58.585,0 0,48.848"
         id="path4166"
         inkscape:connector-curvature="0" /></clipPath><clipPath
       clipPathUnits="userSpaceOnUse"
       id="clipPath4176"><path
         d="m 70.819,810.636 0,-48.848 58.585,0 0,48.848"
         id="path4178"
         inkscape:connector-curvature="0" /></clipPath><clipPath
       clipPathUnits="userSpaceOnUse"
       id="clipPath4234"><path
         d="m 110.34,727.84 382.582,0 0,-260.352 -382.582,0 0,260.352 z"
         id="path4236"
         inkscape:connector-curvature="0" /></clipPath></defs><sodipodi:namedview
     pagecolor="#ffffff"
     bordercolor="#666666"
     borderopacity="1"
     objecttolerance="10"
     gridtolerance="10"
     guidetolerance="10"
     inkscape:pageopacity="0"
     inkscape:pageshadow="2"
     inkscape:window-width="1280"
     inkscape:window-height="857"
     id="namedview4138"
     showgrid="false"
     inkscape:zoom="4.0974491"
     inkscape:cx="78.062833"
     inkscape:cy="81.604035"
     inkscape:window-x="-4"
     inkscape:window-y="-4"
     inkscape:window-maximized="1"
     inkscape:current-layer="g4144"
     units="mm" /><g
     id="g4144"
     inkscape:groupmode="layer"
     inkscape:label="7seg"
     transform="matrix(1.25,0,0,-1.25,0,184.25197)"><g
       id="g7199"
       transform="translate(-133.0304,-448.1427)"><path
         inkscape:connector-curvature="0"
         id="path7196"
         d="m 176.0564,529.74651 20.47504,0 0,-27.47209 -20.47504,0 0,27.47209 z"
         style="fill:none;stroke:#000000;stroke-width:0.29396242;stroke-linecap:round;stroke-linejoin:round;stroke-miterlimit:10;stroke-dasharray:none;stroke-opacity:1" /><path
         inkscape:connector-curvature="0"
         id="path7188"
         d="m 181.71516,514.62149 -2.05773,1.13176 -1.23464,-7.2021 0.61732,-0.8231 1.74907,1.43981 0.92598,5.45363"
         style="fill:none;stroke:#000000;stroke-width:0.29396242;stroke-linecap:round;stroke-linejoin:round;stroke-miterlimit:10;stroke-dasharray:none;stroke-opacity:1" /><path
         inkscape:connector-curvature="0"
         d="m 193.54773,524.2935 -1.64618,-1.44042 -0.9266,-5.45302 1.95546,-1.13237 m 0,0 1.33753,7.20271 -0.72021,0.8231 m -0.72021,-15.84524 -0.30927,-0.30866 -0.20516,-0.30866 0,-0.8231 0.20516,-0.30866 0.30927,-0.30927 0.30866,-0.10289 0.41155,-0.10289 0.30866,0.10289 0.41155,0.10289 0.41154,0.61793 0.10289,0.41155 -0.10289,0.41155 -0.41154,0.61732 -0.41155,0.20639 -0.72021,0 -0.30866,-0.20639 m -3.39525,0.61671 0.92598,5.45363 2.46927,1.13176 -1.23463,-7.09921 -0.9266,-0.8231 -1.23402,1.33692 m -8.12865,-0.51382 7.51072,0 1.13236,-1.33753 -0.92659,-0.9266 -8.74536,0 -0.7202,0.82371 1.74907,1.44042 m 1.95484,8.54025 -2.36639,-1.02949 1.95485,-1.13176 6.48185,0 2.367,1.13176 -1.85196,1.02949 -6.58535,0 m 0.61732,6.379 7.51133,0 1.64619,1.44042 -0.61732,0.82248 -8.74597,0 -1.02887,-0.92537 1.23464,-1.33753 m -2.77794,0 0.92598,0.8231 1.23464,-1.33754 -1.02886,-5.45302 -2.46928,-1.13175 1.33752,7.09921"
         style="fill:none;stroke:#000000;stroke-width:0.29396242;stroke-linecap:round;stroke-linejoin:round;stroke-miterlimit:10;stroke-dasharray:none;stroke-opacity:1"
         id="path5737" /><path
         inkscape:connector-curvature="0"
         d="m 195.60546,507.41939 0,0 m 0,0 -4.63051,0 m -1.74907,0 0,0 m -1.74907,0 -4.62989,0 m 1.54329,-2.3664 0.72021,4.01198 m 1.23464,0 0,-8.5384 m 0,0 0,0 m 0,10.2881 0,0 m -0.92598,0 0,0 m 0.30866,1.64558 1.23464,6.89405 m -0.61732,0.10289 0,-6.89405 m -3.39526,3.49877 6.9969,0 m 1.64619,0 0,0 m 1.74907,0 4.93855,0 m 0,0 0,0 m -4.73278,-6.58539 0,-4.11487 m -6.27669,15.63946 0,0 m -0.92598,0.20577 0,0 m 0,1.74908 0,8.53963 m 1.85257,-4.7328 0,0 m 0,0 -0.72082,-4.01321 m -6.17319,-6.68767 0,0 m -1.74907,0 -4.93917,0 m 12.44988,27.16343 4.11608,-0.72021 m 0,0 0,0 m 0,0 -0.10289,-0.30866 2.77794,0 0.92598,-0.30927 -3.70392,0 -0.1035,-0.10289 4.21896,0 -3.90968,1.33814 -0.30928,-1.33814 m 0.20639,0.72082 1.85196,0 -0.92598,0.30866 -0.92598,0 m 4.01257,-1.02948 2.26351,-0.41155 4.11546,0 -0.20577,-1.43981 -3.90969,1.43981 0.10289,-0.10289 0.92597,-0.30805 3.0866,0 -0.10288,-0.30866 -2.16062,0 0.92598,-0.30866 1.23464,0 m 0,0.30866 4.11607,-0.72021 8.74536,-1.54392 m 0,1.85258 0.10288,0.20578 0.20578,0.20577 0,1.02826 -0.20578,0.30866 -0.20577,0.1035 -0.30866,0.10289 -0.30805,0 -0.20638,-0.10289 -0.30866,-0.1035 -0.20577,-0.20577 c 0.0582,-0.82065 -0.34418,-0.72817 0.10288,-1.5427 l 0.20578,-0.20577 0.30927,-0.10289 0.30866,0 0.30804,0.10289 0.20578,0.20577 m 0.10288,1.95486 0.20578,0.10289 0.20577,0.20577 0.10289,0.20578 0.1035,0.51443 0,0.20578 -0.1035,0.20577 -0.20578,0.30866 -0.30866,0 -0.41154,0.10289 -0.30805,0 -0.20577,-0.10289 -0.20639,-0.20577 -0.10288,-0.20578 -0.10289,-0.51443 0.10289,-0.20578 0,-0.30866 0.20577,-0.10289 0.30927,-0.20577 0.71959,0 m -3.18887,-1.64619 -0.20638,0 m 0,0 0,0 m 0,0 0,-0.10289 0.10288,-0.10289 0.1035,0 0,0.20578 m -1.95607,0.30866 c 0.56098,0.60201 1.81154,4.7916 -0.41093,3.9091 l -0.20577,-0.20578 -0.30928,-0.82248 -0.10288,-0.72021 -0.10289,-0.8231 0,-0.82371 0.10289,-0.30805 0.20577,-0.20577 0.30927,-0.10289 0.30805,0 0.20577,0.10289 m -7.71649,0.41093 -4.01257,0 m 0.30866,2.88146 -3.39526,-19.3434 4.93855,27.98653 m -0.10288,-2.88084 0.82309,-0.30866 2.88082,0 0,-0.30867 -2.05712,0 0.92537,-0.30866 1.13175,0 m 0,0.30866 4.11608,-0.72021 9.05402,-1.5433 m -0.92537,1.5433 1.85134,3.90972 -1.74845,0.30866 m -4.32185,0.72021 -1.54391,-2.98373 2.36761,-0.41155 m -0.51504,1.02826 -0.41155,-1.85136 m 2.16062,-0.10288 -0.10289,-0.10289 0.10289,-0.10289 m 0,0 0,0 m 0,0 0.10289,0 0,0.20578 m 0,0 0,0 m 0,0 -0.10289,0 m -10.18638,-0.51444 -4.01258,1.44042 4.21835,-0.10289 -0.20577,-1.33753 m 0.20577,1.23465 -3.8068,0 m -0.41155,0.20577 -12.75793,2.16063 -4.01319,1.44042 -0.20577,-1.33753 4.21896,-0.10289 m -0.30927,0.10289 -3.90969,0 m 0.10288,0.30866 2.98371,0 0.8231,-0.30866 m -1.74908,0.61732 -2.05773,0 0,-0.30866 m 0,0.30866 -4.01257,0.72021 m 4.11546,-0.41155 1.13175,0 0.82309,-0.30866 m 2.57217,2.05774 -4.93856,-27.98652 -0.41154,-2.36641 m 1.02886,1.02826 -28.80946,0 m 2.77794,0 -0.7196,-4.21776 1.4398,0 -0.7202,4.21776 m -0.10289,-0.82248 0,-3.39528 -0.30866,0 0,1.54331 m 0.92598,-0.41155 0,-1.13176 -0.30866,0 0,2.98373 m -0.20577,-2.98373 0,-11.00953 -0.10289,0 0,-3.39528 -0.30866,1.85136 0,1.54392 -0.30805,0 1.4398,0 -0.7202,-4.21899 -0.7196,4.21899 m 0.61671,0 0.30866,0 0,-2.98373 0.30866,1.85135 0,1.13238 m -1.95484,5.24724 -4.11547,1.23526 0,-1.85258 m 2.77794,-8.84891 25.41421,0 m 5.24721,-2.57157 -4.01258,-14.57139 m 0.51444,2.67446 1.85196,-0.20578 m 0,0 1.85195,-0.20638 1.95485,0 4.11607,-0.5126 0,1.4398 -4.11607,-0.9272 m 0.82309,0.1035 3.29298,0 0,0.30866 -1.95484,0 m -0.92659,-0.61671 2.88143,0 m 0,0.41093 2.05712,0.30928 2.05835,0.51443 m -8.23154,-3.80743 0,10.5594 m -7.92227,-0.37297 -0.20577,0.10289 -0.30866,0.1035 -0.20577,0 -0.30866,-0.20639 -0.10289,-0.10288 -0.10289,-0.30928 0,-0.20577 0.20578,-0.30866 0.20577,-0.20578 0.51443,0 0.20578,0.10289 0.20577,0.20578 0,0.51504 -0.10289,0.30866 m -2.88082,0 -0.10289,0.20639 -0.20577,0.20516 -0.30866,0.10289 -0.30927,-0.10289 -0.20577,-0.10288 -0.20578,-0.20578 -0.20516,-0.82371 -0.20577,-1.64558 0.20577,-0.72021 0.10289,-0.30866 0.20516,-0.20639 0.30866,-0.10288 0.30927,0.10288 0.20577,0.10289 0.20578,0.20639 0.20577,0.82309 0.20577,1.64559 -0.20577,0.8237 m -2.88144,0.72021 -0.30866,-3.49755 -0.10288,-0.61793 m 0.51443,-1.13115 1.85196,-0.82371 2.05834,-0.61732 -0.10288,-0.10289 0,-0.30866 2.67505,0 0.61732,-0.30866 -3.39587,0 4.21896,-0.30927 -3.90969,1.6468 -0.30927,-1.33753 m 0.1035,0.61732 1.85195,0 -0.7202,0.30866 -1.02887,0 m -4.01319,6.48189 -1.02886,-0.92659 m 20.68142,26.6098 3.39526,19.2405 m -3.1901,-18.00525 -0.51382,-2.77795 m 2.88083,-15.02152 25.31131,0 m 0,-2.47052 -25.31131,0 m 22.53276,0 -0.71959,-4.11487 1.4398,0 -0.72021,4.11487 0,2.47052 -0.71959,4.21715 1.4398,0 -0.72021,-4.21715 m -0.10227,0.71898 -0.30866,1.85259 0,1.64558 0.30866,0 0,-3.49817 m 0.30805,0.41217 0,3.086 -0.30805,0 0.10227,0 0,17.18399 m -3.49814,-8.2322 -0.30805,-0.10227 -0.41215,-0.10289 -0.20578,-0.20577 -0.41154,-0.61733 0,-0.72021 0.41154,-0.61793 0.20578,-0.20578 0.41215,-0.10288 0.30805,-0.10289 0.41155,0.10289 c 0.80778,0.20087 0.85371,0.6314 1.02948,1.33814 -0.27192,1.03316 -0.4783,1.11461 -1.44103,1.33692 m -2.05712,-0.41093 4.11485,-1.85197 m -0.20577,4.0126 0.20577,0.30866 0,0.51443 -0.20577,0.30866 -0.20577,0.10289 -0.8231,0.20516 -1.64618,0 -0.82309,-0.20516 -0.20516,-0.10289 -0.10289,-0.30866 -0.10289,-0.20577 0.20578,-0.61732 0.20516,-0.10289 0.82309,-0.20578 1.64618,0 0.8231,0.20578 0.20577,0.10289 m 0.10289,2.88083 0,0 m 0,0 0.10288,0 0,0.20578 -0.10288,0 m 0,0 0,0 m 0,0 -0.10289,-0.10289 0.10289,-0.10289 m 0.10288,2.26291 c -0.86228,1.02642 -1.91259,1.20586 -3.18948,1.13298 m 0,0 -0.30866,0 -0.20577,-0.1035 -0.20516,-0.20577 -0.20578,-0.61794 0.10289,-0.20577 0.10289,-0.30866 0.20516,-0.20516 0.20577,-0.10289 0.30866,-0.10289 0.41155,0 0.61793,0.20578 0.20516,0.20516 0.10288,0.30866 0,0.92721 m 3.80681,-16.77244 0,-1.13115 -0.30866,-1.95485 m -0.30805,-4.32126 0,-3.39528 -0.30866,0 0,1.64619 m 0.92537,-0.51504 0,-1.13115 -0.30866,0 0,2.98373 m -0.20578,-2.98373 0,-4.1161"
         style="fill:none;stroke:#ff0000;stroke-width:0.14698121;stroke-linecap:round;stroke-linejoin:round;stroke-miterlimit:10;stroke-dasharray:none;stroke-opacity:1"
         id="path4615" /></g></g></svg>