<?xml version="1.0" encoding="UTF-8" standalone="no"?>
<!-- Created with Inkscape (http://www.inkscape.org/) -->

<svg
   xmlns:dc="http://purl.org/dc/elements/1.1/"
   xmlns:cc="http://creativecommons.org/ns#"
   xmlns:rdf="http://www.w3.org/1999/02/22-rdf-syntax-ns#"
   xmlns:svg="http://www.w3.org/2000/svg"
   xmlns="http://www.w3.org/2000/svg"
   xmlns:sodipodi="http://sodipodi.sourceforge.net/DTD/sodipodi-0.dtd"
   xmlns:inkscape="http://www.inkscape.org/namespaces/inkscape"
   id="svg4136"
   version="1.1"
   inkscape:version="0.91 r13725"
   xml:space="preserve"
   width="37mm"
   height="52mm"
   viewBox="0 0 131.10236 184.25197"
   sodipodi:docname="7seg-digit.svg"><metadata
     id="metadata4142"><rdf:RDF><cc:Work
         rdf:about=""><dc:format>image/svg+xml</dc:format><dc:type
           rdf:resource="http://purl.org/dc/dcmitype/StillImage" /><dc:title></dc:title></cc:Work></rdf:RDF></metadata><defs
     id="defs4140"><clipPath
       clipPathUnits="userSpaceOnUse"
       id="clipPath4152"><path
         d="m 0,0 595.22,0 0,842 L 0,842 0,0 Z"
         id="path4154"
         inkscape:connector-curvature="0" /></clipPath><clipPath
       clipPathUnits="userSpaceOnUse"
       id="clipPath4164"><path
         d="m 70.819,810.636 0,-48.848 58.585,0 0,48.848"
         id="path4166"
         inkscape:connector-curvature="0" /></clipPath><clipPath
       clipPathUnits="userSpaceOnUse"
       id="clipPath4176"><path
         d="m 70.819,810.636 0,-48.848 58.585,0 0,48.848"
         id="path4178"
         inkscape:connector-curvature="0" /></clipPath><clipPath
       clipPathUnits="userSpaceOnUse"
       id="clipPath4234"><path
         d="m 110.34,727.84 382.582,0 0,-260.352 -382.582,0 0,260.352 z"
         id="path4236"
         inkscape:connector-curvature="0" /></clipPath></defs><sodipodi:namedview
     pagecolor="#ffffff"
     bordercolor="#666666"
     borderopacity="1"
     objecttolerance="10"
     gridtolerance="10"
     guidetolerance="10"
     inkscape:pageopacity="0"
     inkscape:pageshadow="2"
     inkscape:window-width="1360"
     inkscape:window-height="649"
     id="namedview4138"
     showgrid="false"
     inkscape:zoom="16.389796"
     inkscape:cx="72.458597"
     inkscape:cy="81.853186"
     inkscape:window-x="-4"
     inkscape:window-y="-4"
     inkscape:window-maximized="1"
     inkscape:current-layer="g4144"
     units="mm" /><g
     id="g4144"
     inkscape:groupmode="layer"
     inkscape:label="7seg"
     transform="matrix(1.25,0,0,-1.25,0,184.25197)"><path
       style="fill:none;stroke:#000000;stroke-width:0.29396242;stroke-linecap:round;stroke-linejoin:round;stroke-miterlimit:10;stroke-dasharray:none;stroke-opacity:1"
       d="m 43.026,81.60381 20.47504,0 0,-27.47209 -20.47504,0 0,27.47209 z"
       id="path7196"
       inkscape:connector-curvature="0" /><path
       style="fill:none;stroke:#000000;stroke-width:0.29396242;stroke-linecap:round;stroke-linejoin:round;stroke-miterlimit:10;stroke-dasharray:none;stroke-opacity:1"
       d="m 48.68476,66.47879 -2.05773,1.13176 -1.23464,-7.2021 0.61732,-0.8231 1.74907,1.43981 0.92598,5.45363"
       id="path7188"
       inkscape:connector-curvature="0" /><path
       id="path7225"
       style="fill:none;stroke:#000000;stroke-width:0.29396242;stroke-linecap:round;stroke-linejoin:round;stroke-miterlimit:10;stroke-dasharray:none;stroke-opacity:1"
       d="m 59.90001,68.12499 1.33753,7.20271 -0.72021,0.8231 m 0,0 -1.64618,-1.44042 -0.9266,-5.45302 1.95546,-1.13237" /><path
       style="fill:none;stroke:#000000;stroke-width:0.29396242;stroke-linecap:round;stroke-linejoin:round;stroke-miterlimit:10;stroke-dasharray:none;stroke-opacity:1"
       d="m 59.79712,60.30556 -0.30927,-0.30866 -0.20516,-0.30866 0,-0.8231 0.20516,-0.30866 0.30927,-0.30927 0.30866,-0.10289 0.41155,-0.10289 0.30866,0.10289 0.41155,0.10289 0.41154,0.61793 0.10289,0.41155 -0.10289,0.41155 -0.41154,0.61732 -0.41155,0.20639 -0.72021,0 -0.30866,-0.20639"
       id="path7223" /><path
       style="fill:none;stroke:#000000;stroke-width:0.29396242;stroke-linecap:round;stroke-linejoin:round;stroke-miterlimit:10;stroke-dasharray:none;stroke-opacity:1"
       d="m 56.40187,60.92227 0.92598,5.45363 2.46927,1.13176 -1.23463,-7.09921 -0.9266,-0.8231 -1.23402,1.33692"
       id="path7221" /><path
       style="fill:none;stroke:#000000;stroke-width:0.29396242;stroke-linecap:round;stroke-linejoin:round;stroke-miterlimit:10;stroke-dasharray:none;stroke-opacity:1"
       d="m 48.27322,60.40845 7.51072,0 1.13236,-1.33753 -0.92659,-0.9266 -8.74536,0 -0.7202,0.82371 1.74907,1.44042"
       id="path7219" /><path
       style="fill:none;stroke:#000000;stroke-width:0.29396242;stroke-linecap:round;stroke-linejoin:round;stroke-miterlimit:10;stroke-dasharray:none;stroke-opacity:1"
       d="m 50.22806,68.9487 -2.36639,-1.02949 1.95485,-1.13176 6.48185,0 2.367,1.13176 -1.85196,1.02949 -6.58535,0"
       id="path7217" /><path
       style="fill:none;stroke:#000000;stroke-width:0.29396242;stroke-linecap:round;stroke-linejoin:round;stroke-miterlimit:10;stroke-dasharray:none;stroke-opacity:1"
       d="m 50.84538,75.3277 7.51133,0 1.64619,1.44042 -0.61732,0.82248 -8.74597,0 -1.02887,-0.92537 1.23464,-1.33753"
       id="path7215"
       inkscape:connector-curvature="0" /><path
       style="fill:none;stroke:#000000;stroke-width:0.29396242;stroke-linecap:round;stroke-linejoin:round;stroke-miterlimit:10;stroke-dasharray:none;stroke-opacity:1"
       d="m 48.06744,75.3277 0.92598,0.8231 1.23464,-1.33754 -1.02886,-5.45302 -2.46928,-1.13175 1.33752,7.09921"
       id="path5737" /></g></svg>