<?xml version="1.0" encoding="utf-8"?>
<!-- Generator: Adobe Illustrator 16.0.3, SVG Export Plug-In . SVG Version: 6.00 Build 0)  -->
<!DOCTYPE svg PUBLIC "-//W3C//DTD SVG 1.1//EN" "http://www.w3.org/Graphics/SVG/1.1/DTD/svg11.dtd">
<svg version="1.1" id="Layer_1" xmlns="http://www.w3.org/2000/svg" xmlns:xlink="http://www.w3.org/1999/xlink" x="0px" y="0px"
	 width="300px" height="95px" viewBox="0 0 300 95" enable-background="new 0 0 300 95" xml:space="preserve">
<g>
	<g>
		<g>
			<path fill="#231F20" d="M212.677,81.853H82.439c-11.026,0-20-8.954-20.035-19.972l-8.14-31.808
				c0-11.046,8.987-20.034,20.034-20.034h146.516c11.048,0,20.035,8.987,20.035,20.034l-0.016,0.124l-8.124,31.685
				C232.676,72.898,223.701,81.853,212.677,81.853z M55.261,30.01l8.14,31.806c0,10.498,8.541,19.039,19.038,19.039h130.238
				c10.496,0,19.036-8.541,19.036-19.039l0.016-0.123l8.124-31.683c-0.034-10.468-8.561-18.974-19.038-18.974H74.298
				C63.822,11.036,55.296,19.542,55.261,30.01z"/>
		</g>
		<g>
			<circle fill-rule="evenodd" clip-rule="evenodd" fill="#231F20" cx="83.252" cy="31.701" r="7.327"/>
		</g>
		<g>
			<circle fill-rule="evenodd" clip-rule="evenodd" fill="#231F20" cx="114.591" cy="31.701" r="7.326"/>
		</g>
		<g>
			<circle fill-rule="evenodd" clip-rule="evenodd" fill="#231F20" cx="145.929" cy="31.701" r="7.326"/>
		</g>
		<g>
			<circle fill-rule="evenodd" clip-rule="evenodd" fill="#231F20" cx="177.268" cy="31.701" r="7.327"/>
		</g>
		<g>
			<circle fill-rule="evenodd" clip-rule="evenodd" fill="#231F20" cx="101.16" cy="57.748" r="7.326"/>
		</g>
		<g>
			<circle fill-rule="evenodd" clip-rule="evenodd" fill="#231F20" cx="132.498" cy="57.748" r="7.326"/>
		</g>
		<g>
			<circle fill-rule="evenodd" clip-rule="evenodd" fill="#231F20" cx="163.837" cy="57.748" r="7.327"/>
		</g>
		<g>
			<circle fill-rule="evenodd" clip-rule="evenodd" fill="#231F20" cx="195.175" cy="57.748" r="7.325"/>
		</g>
		<g>
			<circle fill-rule="evenodd" clip-rule="evenodd" fill="#231F20" cx="208.607" cy="31.701" r="7.326"/>
		</g>
		<g>
			<path fill="#231F20" d="M84.087,22.205h-1.105v-6.613h-2.396v-0.885c1.262,0,2.408-0.339,2.655-1.732h0.846V22.205z"/>
		</g>
		<g>
			<path fill="#231F20" d="M111.501,16.242c-0.092-1.875,1.015-3.268,2.968-3.268c1.615,0,2.89,0.938,2.89,2.656
				c0,1.627-1.093,2.448-2.239,3.164c-1.159,0.703-2.369,1.289-2.591,2.434h4.739v0.976h-6.027c0.182-2.187,1.289-2.968,2.591-3.775
				c1.562-0.963,2.355-1.536,2.355-2.812c0-1.002-0.807-1.666-1.783-1.666c-1.289,0-1.835,1.185-1.797,2.291H111.501z"/>
		</g>
		<g>
			<path fill="#231F20" d="M145.239,16.932c0.169,0.013,0.325,0.013,0.482,0.013c0.938,0,1.757-0.507,1.757-1.51
				c0-0.964-0.703-1.484-1.64-1.484c-1.21,0-1.731,0.924-1.744,2.005h-1.106c0.065-1.757,1.002-2.981,2.851-2.981
				c1.601,0,2.812,0.768,2.812,2.474c0,0.807-0.573,1.51-1.276,1.835v0.026c1.119,0.247,1.667,1.132,1.667,2.239
				c0,1.849-1.445,2.812-3.176,2.812c-1.875,0-3.112-1.106-3.073-3.007h1.107c0.039,1.198,0.703,2.031,1.966,2.031
				c1.081,0,2.004-0.664,2.004-1.784c0-1.159-0.873-1.771-1.965-1.771c-0.221,0-0.456,0.013-0.664,0.039V16.932z"/>
		</g>
		<g>
			<path fill="#231F20" d="M179.059,19.067h1.25v0.977h-1.25v2.161h-1.042v-2.161h-4.048v-1.068l4.205-6.001h0.885V19.067z
				 M178.017,19.067V14.55h-0.026l-3.071,4.517H178.017z"/>
		</g>
		<g>
			<path fill="#231F20" d="M211.466,14.108h-3.723l-0.494,2.655l0.024,0.026c0.404-0.456,1.095-0.664,1.72-0.664
				c1.64,0,2.98,1.054,2.98,3.163c0,1.563-1.08,3.072-3.229,3.072c-1.601,0-2.903-0.976-2.941-2.643h1.106
				c0.065,0.951,0.833,1.667,1.939,1.667c1.055,0,1.952-0.716,1.952-2.187c0-1.224-0.846-2.096-2.082-2.096
				c-0.703,0-1.289,0.352-1.719,0.872l-0.95-0.052l0.859-4.791h4.556V14.108z"/>
		</g>
		<g>
			<path fill="#231F20" d="M103.024,70.682c-0.104-0.833-0.677-1.38-1.549-1.38c-1.888,0-2.187,2.083-2.239,3.502l0.026,0.026
				c0.521-0.846,1.301-1.211,2.304-1.211c1.771,0,2.825,1.289,2.825,2.994c0,1.341-0.755,3.098-3.085,3.098
				c-2.734,0-3.177-2.499-3.177-4.438c0-2.539,0.768-4.947,3.398-4.947c1.523,0,2.473,0.859,2.604,2.355H103.024z M99.444,74.678
				c0,1.146,0.703,2.057,1.914,2.057c1.198,0,1.862-0.949,1.862-2.043c0-1.146-0.599-2.096-1.862-2.096
				C100.121,72.596,99.444,73.52,99.444,74.678z"/>
		</g>
		<g>
			<path fill="#231F20" d="M135.461,69.432c-1.862,1.849-3.372,5.234-3.541,8.124h-1.237c0.208-3.124,1.705-5.976,3.645-8.032
				h-4.842v-1.042h5.975V69.432z"/>
		</g>
		<g>
			<path fill="#231F20" d="M163.592,68.326c2.019,0,2.799,1.184,2.799,2.355c0,0.82-0.521,1.576-1.276,1.914
				c1.107,0.352,1.641,1.158,1.641,2.305c0,1.783-1.354,2.811-3.06,2.811c-1.771,0-3.137-0.924-3.137-2.811
				c0-1.094,0.586-1.94,1.613-2.305c-0.768-0.313-1.288-1.08-1.288-1.914C160.884,69.158,162.172,68.326,163.592,68.326z
				 M163.695,76.734c1.106,0,1.889-0.768,1.889-1.795c0-1.003-0.859-1.758-1.901-1.758c-1.094,0-1.952,0.703-1.952,1.77
				C161.73,76.059,162.55,76.734,163.695,76.734z M163.695,72.205c0.873,0,1.523-0.547,1.523-1.484c0-0.924-0.65-1.419-1.549-1.419
				c-0.886,0-1.614,0.495-1.614,1.419C162.056,71.736,162.784,72.205,163.695,72.205z"/>
		</g>
		<g>
			<path fill="#231F20" d="M192.984,75.33c0.079,0.898,0.808,1.404,1.693,1.404c1.354,0,2.018-1.184,2.082-3.566l-0.026-0.025
				c-0.416,0.78-1.235,1.275-2.134,1.275c-1.875,0-2.916-1.263-2.916-3.085c0-1.784,1.249-3.007,3.032-3.007
				c1.72,0,3.164,0.924,3.164,4.412c0,3.189-0.964,4.973-3.202,4.973c-1.55,0-2.655-0.793-2.8-2.381H192.984z M194.665,69.302
				c-1.315,0-1.81,1.055-1.81,2.187c0,1.016,0.754,1.954,1.822,1.954c1.158,0,1.887-0.938,1.887-2.032
				C196.564,70.278,195.9,69.302,194.665,69.302z"/>
		</g>
	</g>
	<g>
		<path fill="#231F20" d="M300,94.875H0V0h300V94.875z M0.997,93.879h298.006V0.997H0.997V93.879z"/>
	</g>
	<g>
		<g>
			<path fill="#231F20" d="M40.921,67.701h-21.83L8.176,48.793l10.915-18.904h21.83l10.914,18.904L40.921,67.701z M19.666,66.704
				h20.68l10.338-17.911L40.346,30.885h-20.68L9.327,48.793L19.666,66.704z"/>
		</g>
		<g>
			<path fill="#231F20" d="M30.006,58.38c-5.287,0-9.588-4.3-9.588-9.587c0-5.285,4.301-9.585,9.588-9.585
				c5.286,0,9.587,4.3,9.587,9.585C39.593,54.08,35.292,58.38,30.006,58.38z M30.006,40.205c-4.738,0-8.592,3.853-8.592,8.588
				c0,4.737,3.854,8.59,8.592,8.59c4.737,0,8.59-3.853,8.59-8.59C38.597,44.057,34.743,40.205,30.006,40.205z"/>
		</g>
	</g>
	<g>
		<g>
			<path fill="#231F20" d="M278.603,67.701h-21.83l-10.914-18.908l10.914-18.904h21.83l10.914,18.904L278.603,67.701z
				 M257.349,66.704h20.678l10.34-17.911l-10.34-17.908h-20.678l-10.34,17.908L257.349,66.704z"/>
		</g>
		<g>
			<path fill="#231F20" d="M267.69,58.38c-5.289,0-9.591-4.3-9.591-9.587c0-5.285,4.302-9.585,9.591-9.585
				c5.285,0,9.585,4.3,9.585,9.585C277.275,54.08,272.976,58.38,267.69,58.38z M267.69,40.205c-4.739,0-8.594,3.853-8.594,8.588
				c0,4.737,3.854,8.59,8.594,8.59c4.735,0,8.588-3.853,8.588-8.59C276.278,44.057,272.426,40.205,267.69,40.205z"/>
		</g>
	</g>
</g>
</svg>
