<?xml version="1.0" encoding="UTF-8" standalone="no"?>
<!-- Created with Inkscape (http://www.inkscape.org/) -->

<svg
   xmlns:dc="http://purl.org/dc/elements/1.1/"
   xmlns:cc="http://creativecommons.org/ns#"
   xmlns:rdf="http://www.w3.org/1999/02/22-rdf-syntax-ns#"
   xmlns:svg="http://www.w3.org/2000/svg"
   xmlns="http://www.w3.org/2000/svg"
   xmlns:sodipodi="http://sodipodi.sourceforge.net/DTD/sodipodi-0.dtd"
   xmlns:inkscape="http://www.inkscape.org/namespaces/inkscape"
   width="744.09448"
   height="390"
   id="svg2"
   version="1.1"
   inkscape:version="0.48.2 r9819"
   sodipodi:docname="msi-z68ma-g45-db9-jcom1.svg"
   inkscape:export-filename="/home/trisquel/msi-z68ma-g45-db9-jcom1.png"
   inkscape:export-xdpi="90"
   inkscape:export-ydpi="90">
  <defs
     id="defs4" />
  <sodipodi:namedview
     id="base"
     pagecolor="#ffffff"
     bordercolor="#666666"
     borderopacity="1.0"
     inkscape:pageopacity="0.0"
     inkscape:pageshadow="2"
     inkscape:zoom="0.7"
     inkscape:cx="312.84912"
     inkscape:cy="293.83477"
     inkscape:document-units="px"
     inkscape:current-layer="layer1"
     showgrid="false"
     inkscape:window-width="1680"
     inkscape:window-height="981"
     inkscape:window-x="0"
     inkscape:window-y="0"
     inkscape:window-maximized="1" />
  <metadata
     id="metadata7">
    <rdf:RDF>
      <cc:Work
         rdf:about="">
        <dc:format>image/svg+xml</dc:format>
        <dc:type
           rdf:resource="http://purl.org/dc/dcmitype/StillImage" />
        <dc:title></dc:title>
      </cc:Work>
    </rdf:RDF>
  </metadata>
  <g
     inkscape:label="Layer 1"
     inkscape:groupmode="layer"
     id="layer1"
     transform="translate(0,-662.36218)">
    <g
       id="g4933"
       transform="translate(-188.85778,643.78259)">
      <text
         sodipodi:linespacing="125%"
         id="text3863"
         y="85.174217"
         x="293.93323"
         style="font-size:23.41934204px;font-style:normal;font-weight:normal;line-height:125%;letter-spacing:0px;word-spacing:0px;fill:#000000;fill-opacity:1;stroke:none;font-family:Sans"
         xml:space="preserve"><tspan
           y="85.174217"
           x="293.93323"
           id="tspan3865"
           sodipodi:role="line">DB9 connector</tspan><tspan
           id="tspan3867"
           y="114.44839"
           x="293.93323"
           sodipodi:role="line">(<tspan
   id="tspan3869"
   style="font-weight:bold">front</tspan> view)</tspan></text>
      <g
         transform="translate(17.318001,0)"
         id="g4613">
        <g
           id="g4533">
          <path
             sodipodi:nodetypes="cssccsscc"
             inkscape:connector-curvature="0"
             id="rect2996"
             d="m 389.10532,163.27214 c 0,-9.16798 -10.17944,-19.79274 -20.71875,-16.96875 -16.16269,4.33079 -33.76959,8.92521 -46.78125,16.4375 -10.24392,5.91433 -15.875,9.06614 -15.875,27.125 0,41.39583 0,82.79167 0,124.1875 0,18.05886 5.63108,21.21067 15.875,27.125 13.01166,7.51229 30.61856,12.10671 46.78125,16.4375 10.53931,2.82399 20.71875,-7.80077 20.71875,-16.96875 0,-59.125 0,-118.25 0,-177.375 z"
             style="fill:#cccccc;fill-opacity:1;fill-rule:evenodd;stroke:#000000;stroke-width:1px;stroke-linecap:butt;stroke-linejoin:miter;stroke-opacity:1" />
          <path
             transform="matrix(0,1.0067415,-1.0067415,0,625.17793,-5.24722)"
             d="m 202.85715,262.98718 c 0,4.38869 -3.55774,7.94643 -7.94643,7.94643 -4.38869,0 -7.94643,-3.55774 -7.94643,-7.94643 0,-4.38869 3.55774,-7.94643 7.94643,-7.94643 4.38869,0 7.94643,3.55774 7.94643,7.94643 z"
             sodipodi:ry="7.9464288"
             sodipodi:rx="7.9464288"
             sodipodi:cy="262.98718"
             sodipodi:cx="194.91072"
             id="path3770"
             style="fill:#000000;fill-opacity:1"
             sodipodi:type="arc" />
          <path
             sodipodi:type="arc"
             style="fill:#000000;fill-opacity:1"
             id="path3772"
             sodipodi:cx="194.91072"
             sodipodi:cy="262.98718"
             sodipodi:rx="7.9464288"
             sodipodi:ry="7.9464288"
             d="m 202.85715,262.98718 c 0,4.38869 -3.55774,7.94643 -7.94643,7.94643 -4.38869,0 -7.94643,-3.55774 -7.94643,-7.94643 0,-4.38869 3.55774,-7.94643 7.94643,-7.94643 4.38869,0 7.94643,3.55774 7.94643,7.94643 z"
             transform="matrix(0,1.0067415,-1.0067415,0,625.17793,55.71707)" />
          <path
             transform="matrix(0,1.0067415,-1.0067415,0,625.17793,25.71707)"
             d="m 202.85715,262.98718 c 0,4.38869 -3.55774,7.94643 -7.94643,7.94643 -4.38869,0 -7.94643,-3.55774 -7.94643,-7.94643 0,-4.38869 3.55774,-7.94643 7.94643,-7.94643 4.38869,0 7.94643,3.55774 7.94643,7.94643 z"
             sodipodi:ry="7.9464288"
             sodipodi:rx="7.9464288"
             sodipodi:cy="262.98718"
             sodipodi:cx="194.91072"
             id="path3774"
             style="fill:#000000;fill-opacity:1"
             sodipodi:type="arc" />
          <path
             sodipodi:type="arc"
             style="fill:#000000;fill-opacity:1"
             id="path3776"
             sodipodi:cx="194.91072"
             sodipodi:cy="262.98718"
             sodipodi:rx="7.9464288"
             sodipodi:ry="7.9464288"
             d="m 202.85715,262.98718 c 0,4.38869 -3.55774,7.94643 -7.94643,7.94643 -4.38869,0 -7.94643,-3.55774 -7.94643,-7.94643 0,-4.38869 3.55774,-7.94643 7.94643,-7.94643 4.38869,0 7.94643,3.55774 7.94643,7.94643 z"
             transform="matrix(0,1.0067415,-1.0067415,0,625.17793,116.71707)" />
          <path
             transform="matrix(0,1.0067415,-1.0067415,0,625.17793,86.71707)"
             d="m 202.85715,262.98718 c 0,4.38869 -3.55774,7.94643 -7.94643,7.94643 -4.38869,0 -7.94643,-3.55774 -7.94643,-7.94643 0,-4.38869 3.55774,-7.94643 7.94643,-7.94643 4.38869,0 7.94643,3.55774 7.94643,7.94643 z"
             sodipodi:ry="7.9464288"
             sodipodi:rx="7.9464288"
             sodipodi:cy="262.98718"
             sodipodi:cx="194.91072"
             id="path3778"
             style="fill:#000000;fill-opacity:1"
             sodipodi:type="arc" />
          <path
             sodipodi:type="arc"
             style="fill:#000000;fill-opacity:1"
             id="path3780"
             sodipodi:cx="194.91072"
             sodipodi:cy="262.98718"
             sodipodi:rx="7.9464288"
             sodipodi:ry="7.9464288"
             d="m 202.85715,262.98718 c 0,4.38869 -3.55774,7.94643 -7.94643,7.94643 -4.38869,0 -7.94643,-3.55774 -7.94643,-7.94643 0,-4.38869 3.55774,-7.94643 7.94643,-7.94643 4.38869,0 7.94643,3.55774 7.94643,7.94643 z"
             transform="matrix(0,1.0067415,-1.0067415,0,599.17793,11.71707)" />
          <path
             transform="matrix(0,1.0067415,-1.0067415,0,599.17793,72.68136)"
             d="m 202.85715,262.98718 c 0,4.38869 -3.55774,7.94643 -7.94643,7.94643 -4.38869,0 -7.94643,-3.55774 -7.94643,-7.94643 0,-4.38869 3.55774,-7.94643 7.94643,-7.94643 4.38869,0 7.94643,3.55774 7.94643,7.94643 z"
             sodipodi:ry="7.9464288"
             sodipodi:rx="7.9464288"
             sodipodi:cy="262.98718"
             sodipodi:cx="194.91072"
             id="path3782"
             style="fill:#000000;fill-opacity:1"
             sodipodi:type="arc" />
          <path
             sodipodi:type="arc"
             style="fill:#000000;fill-opacity:1"
             id="path3784"
             sodipodi:cx="194.91072"
             sodipodi:cy="262.98718"
             sodipodi:rx="7.9464288"
             sodipodi:ry="7.9464288"
             d="m 202.85715,262.98718 c 0,4.38869 -3.55774,7.94643 -7.94643,7.94643 -4.38869,0 -7.94643,-3.55774 -7.94643,-7.94643 0,-4.38869 3.55774,-7.94643 7.94643,-7.94643 4.38869,0 7.94643,3.55774 7.94643,7.94643 z"
             transform="matrix(0,1.0067415,-1.0067415,0,599.17793,42.68136)" />
          <path
             sodipodi:type="arc"
             style="fill:#000000;fill-opacity:1"
             id="path3788"
             sodipodi:cx="194.91072"
             sodipodi:cy="262.98718"
             sodipodi:rx="7.9464288"
             sodipodi:ry="7.9464288"
             d="m 202.85715,262.98718 c 0,4.38869 -3.55774,7.94643 -7.94643,7.94643 -4.38869,0 -7.94643,-3.55774 -7.94643,-7.94643 0,-4.38869 3.55774,-7.94643 7.94643,-7.94643 4.38869,0 7.94643,3.55774 7.94643,7.94643 z"
             transform="matrix(0,1.0067415,-1.0067415,0,599.17793,103.68136)" />
        </g>
        <rect
           style="fill:#000000;fill-opacity:1"
           id="rect3825"
           width="2"
           height="60"
           x="189.97751"
           y="-431.23676"
           transform="matrix(0,1,-1,0,0,0)" />
        <rect
           y="-431.23676"
           x="220.9418"
           height="60"
           width="2"
           id="rect3845"
           style="fill:#000000;fill-opacity:1"
           transform="matrix(0,1,-1,0,0,0)" />
        <rect
           style="fill:#000000;fill-opacity:1"
           id="rect3847"
           width="2"
           height="60"
           x="250.9418"
           y="-431.23676"
           transform="matrix(0,1,-1,0,0,0)" />
        <rect
           y="-431.23676"
           x="281.9418"
           height="60"
           width="2"
           id="rect3849"
           style="fill:#000000;fill-opacity:1"
           transform="matrix(0,1,-1,0,0,0)" />
        <rect
           style="fill:#000000;fill-opacity:1"
           id="rect3851"
           width="2"
           height="60"
           x="311.9418"
           y="-431.23676"
           transform="matrix(0,1,-1,0,0,0)" />
        <rect
           y="-323.23672"
           x="206.9418"
           height="60"
           width="2"
           id="rect3853"
           style="fill:#000000;fill-opacity:1"
           transform="matrix(0,1,-1,0,0,0)" />
        <rect
           style="fill:#000000;fill-opacity:1"
           id="rect3855"
           width="2"
           height="60"
           x="237.90613"
           y="-323.23672"
           transform="matrix(0,1,-1,0,0,0)" />
        <rect
           y="-323.23672"
           x="267.9061"
           height="60"
           width="2"
           id="rect3857"
           style="fill:#000000;fill-opacity:1"
           transform="matrix(0,1,-1,0,0,0)" />
        <rect
           style="fill:#000000;fill-opacity:1"
           id="rect3859"
           width="2"
           height="60"
           x="298.9061"
           y="-323.23672"
           transform="matrix(0,1,-1,0,0,0)" />
        <text
           xml:space="preserve"
           style="font-size:40px;font-style:normal;font-weight:normal;line-height:125%;letter-spacing:0px;word-spacing:0px;fill:#000000;fill-opacity:1;stroke:none;font-family:Sans"
           x="437.59644"
           y="198.12106"
           id="text3871"
           sodipodi:linespacing="125%"><tspan
             sodipodi:role="line"
             id="tspan3873"
             x="437.59644"
             y="198.12106"
             style="font-size:20px">DCD</tspan></text>
        <text
           xml:space="preserve"
           style="font-size:40px;font-style:normal;font-weight:normal;line-height:125%;letter-spacing:0px;word-spacing:0px;fill:#000000;fill-opacity:1;stroke:none;font-family:Sans"
           x="438.52417"
           y="229.08536"
           id="text3875"
           sodipodi:linespacing="125%"><tspan
             sodipodi:role="line"
             id="tspan3877"
             x="438.52417"
             y="229.08536"
             style="font-size:20px">SIN</tspan></text>
        <text
           xml:space="preserve"
           style="font-size:20px;font-style:normal;font-weight:normal;line-height:125%;letter-spacing:0px;word-spacing:0px;fill:#000000;fill-opacity:1;stroke:none;font-family:Sans"
           x="438.52417"
           y="259.09512"
           id="text3879"
           sodipodi:linespacing="125%"><tspan
             sodipodi:role="line"
             id="tspan3881"
             x="438.52417"
             y="259.09512">SOUT</tspan></text>
        <text
           xml:space="preserve"
           style="font-size:20px;font-style:normal;font-weight:normal;line-height:125%;letter-spacing:0px;word-spacing:0px;fill:#000000;fill-opacity:1;stroke:none;font-family:Sans"
           x="437.59644"
           y="290.08047"
           id="text3879-2"
           sodipodi:linespacing="125%"><tspan
             sodipodi:role="line"
             id="tspan3881-2"
             x="437.59644"
             y="290.08047">DTR</tspan></text>
        <text
           xml:space="preserve"
           style="font-size:20px;font-style:normal;font-weight:normal;line-height:125%;letter-spacing:0px;word-spacing:0px;fill:#000000;fill-opacity:1;stroke:none;font-family:Sans"
           x="438.31909"
           y="320.08536"
           id="text3879-2-3"
           sodipodi:linespacing="125%"><tspan
             sodipodi:role="line"
             id="tspan3881-2-9"
             x="438.31909"
             y="320.08536">GND</tspan></text>
        <text
           xml:space="preserve"
           style="font-size:40px;font-style:normal;font-weight:normal;line-height:125%;letter-spacing:0px;word-spacing:0px;fill:#000000;fill-opacity:1;stroke:none;font-family:Sans"
           x="219.59642"
           y="215.08536"
           id="text3871-3"
           sodipodi:linespacing="125%"><tspan
             sodipodi:role="line"
             id="tspan3873-9"
             x="219.59642"
             y="215.08536"
             style="font-size:20px">DSR</tspan></text>
        <text
           xml:space="preserve"
           style="font-size:40px;font-style:normal;font-weight:normal;line-height:125%;letter-spacing:0px;word-spacing:0px;fill:#000000;fill-opacity:1;stroke:none;font-family:Sans"
           x="223.96167"
           y="246.04971"
           id="text3871-3-4"
           sodipodi:linespacing="125%"><tspan
             sodipodi:role="line"
             id="tspan3873-9-7"
             x="223.96167"
             y="246.04971"
             style="font-size:20px">RTS</tspan></text>
        <text
           xml:space="preserve"
           style="font-size:40px;font-style:normal;font-weight:normal;line-height:125%;letter-spacing:0px;word-spacing:0px;fill:#000000;fill-opacity:1;stroke:none;font-family:Sans"
           x="223.4929"
           y="276.04965"
           id="text3871-3-4-1"
           sodipodi:linespacing="125%"><tspan
             sodipodi:role="line"
             id="tspan3873-9-7-2"
             x="223.4929"
             y="276.04965"
             style="font-size:20px">CTS</tspan></text>
        <text
           xml:space="preserve"
           style="font-size:40px;font-style:normal;font-weight:normal;line-height:125%;letter-spacing:0px;word-spacing:0px;fill:#000000;fill-opacity:1;stroke:none;font-family:Sans"
           x="237.44798"
           y="307.04477"
           id="text3871-3-4-1-1"
           sodipodi:linespacing="125%"><tspan
             sodipodi:role="line"
             id="tspan3873-9-7-2-7"
             x="237.44798"
             y="307.04477"
             style="font-size:20px">RI</tspan></text>
      </g>
    </g>
    <g
       id="g4978"
       transform="translate(172.85821,320.5433)">
      <g
         transform="translate(16.857788,87.883271)"
         id="g4565">
        <g
           id="g4545">
          <rect
             ry="13.706396"
             rx="13.706396"
             y="547.56152"
             x="298.13782"
             height="38.091419"
             width="99.438652"
             id="rect4092"
             style="fill:#cccccc;fill-opacity:1;stroke:#000000;stroke-width:0.56134725;stroke-miterlimit:4;stroke-opacity:1;stroke-dasharray:none" />
          <rect
             style="fill:#cccccc;fill-opacity:1;stroke:#000000;stroke-width:0.56134725;stroke-miterlimit:4;stroke-opacity:1;stroke-dasharray:none"
             id="rect4094"
             width="99.438652"
             height="38.091419"
             x="298.13782"
             y="506.33194"
             rx="13.706396"
             ry="13.706396" />
          <rect
             ry="13.706396"
             rx="13.706396"
             y="465.10233"
             x="298.13782"
             height="38.091419"
             width="99.438652"
             id="rect4096"
             style="fill:#cccccc;fill-opacity:1;stroke:#000000;stroke-width:0.56134725;stroke-miterlimit:4;stroke-opacity:1;stroke-dasharray:none" />
          <rect
             ry="13.706396"
             rx="13.706396"
             y="423.87268"
             x="298.13782"
             height="38.091419"
             width="99.438652"
             id="rect4098"
             style="fill:#cccccc;fill-opacity:1;stroke:#000000;stroke-width:0.56134725;stroke-miterlimit:4;stroke-opacity:1;stroke-dasharray:none" />
          <rect
             style="fill:#cccccc;fill-opacity:1;stroke:#000000;stroke-width:0.56134725;stroke-miterlimit:4;stroke-opacity:1;stroke-dasharray:none"
             id="rect4100"
             width="99.438652"
             height="38.091419"
             x="298.13782"
             y="382.64307"
             rx="13.706396"
             ry="13.706396" />
          <path
             sodipodi:type="arc"
             style="fill:#000000;fill-opacity:1;stroke:none"
             id="path4104"
             sodipodi:cx="38.75"
             sodipodi:cy="698.9693"
             sodipodi:rx="16.25"
             sodipodi:ry="16.25"
             d="m 55,698.9693 c 0,8.97463 -7.275373,16.25 -16.25,16.25 -8.974627,0 -16.25,-7.27537 -16.25,-16.25 0,-8.97463 7.275373,-16.25 16.25,-16.25 8.974627,0 16.25,7.27537 16.25,16.25 z"
             transform="matrix(0.55501409,0,0,0.55501409,351.85209,13.750973)" />
          <g
             transform="matrix(0.51537022,0,0,0.51537022,295.21576,41.552841)"
             id="g4154">
            <path
               sodipodi:type="arc"
               style="fill:#000000;fill-opacity:1;stroke:none"
               id="path4102-7"
               sodipodi:cx="38.75"
               sodipodi:cy="698.9693"
               sodipodi:rx="16.25"
               sodipodi:ry="16.25"
               d="m 55,698.9693 c 0,8.97463 -7.275373,16.25 -16.25,16.25 -8.974627,0 -16.25,-7.27537 -16.25,-16.25 0,-8.97463 7.275373,-16.25 16.25,-16.25 8.974627,0 16.25,7.27537 16.25,16.25 z"
               transform="matrix(1.0769231,0,0,1.0769231,10.912087,26.054569)" />
            <path
               transform="matrix(1.0769231,0,0,1.0769231,109.91209,26.054569)"
               d="m 55,698.9693 c 0,8.97463 -7.275373,16.25 -16.25,16.25 -8.974627,0 -16.25,-7.27537 -16.25,-16.25 0,-8.97463 7.275373,-16.25 16.25,-16.25 8.974627,0 16.25,7.27537 16.25,16.25 z"
               sodipodi:ry="16.25"
               sodipodi:rx="16.25"
               sodipodi:cy="698.9693"
               sodipodi:cx="38.75"
               id="path4104-2"
               style="fill:#000000;fill-opacity:1;stroke:none"
               sodipodi:type="arc" />
          </g>
          <g
             transform="matrix(0.51537022,0,0,0.51537022,295.21576,40.816598)"
             id="g4167">
            <path
               sodipodi:type="arc"
               style="fill:#000000;fill-opacity:1;stroke:none"
               id="path4102-6"
               sodipodi:cx="38.75"
               sodipodi:cy="698.9693"
               sodipodi:rx="16.25"
               sodipodi:ry="16.25"
               d="m 55,698.9693 c 0,8.97463 -7.275373,16.25 -16.25,16.25 -8.974627,0 -16.25,-7.27537 -16.25,-16.25 0,-8.97463 7.275373,-16.25 16.25,-16.25 8.974627,0 16.25,7.27537 16.25,16.25 z"
               transform="matrix(1.0769231,0,0,1.0769231,10.912088,107.48314)" />
            <path
               transform="matrix(1.0769231,0,0,1.0769231,109.91209,107.48314)"
               d="m 55,698.9693 c 0,8.97463 -7.275373,16.25 -16.25,16.25 -8.974627,0 -16.25,-7.27537 -16.25,-16.25 0,-8.97463 7.275373,-16.25 16.25,-16.25 8.974627,0 16.25,7.27537 16.25,16.25 z"
               sodipodi:ry="16.25"
               sodipodi:rx="16.25"
               sodipodi:cy="698.9693"
               sodipodi:cx="38.75"
               id="path4104-27"
               style="fill:#000000;fill-opacity:1;stroke:none"
               sodipodi:type="arc" />
          </g>
          <g
             transform="matrix(0.51537022,0,0,0.51537022,294.47952,40.44848)"
             id="g4171">
            <path
               sodipodi:type="arc"
               style="fill:#000000;fill-opacity:1;stroke:none"
               id="path4102-5"
               sodipodi:cx="38.75"
               sodipodi:cy="698.9693"
               sodipodi:rx="16.25"
               sodipodi:ry="16.25"
               d="m 55,698.9693 c 0,8.97463 -7.275373,16.25 -16.25,16.25 -8.974627,0 -16.25,-7.27537 -16.25,-16.25 0,-8.97463 7.275373,-16.25 16.25,-16.25 8.974627,0 16.25,7.27537 16.25,16.25 z"
               transform="matrix(1.0769231,0,0,1.0769231,12.340658,188.19742)" />
            <path
               transform="matrix(1.0769231,0,0,1.0769231,111.34065,188.19742)"
               d="m 55,698.9693 c 0,8.97463 -7.275373,16.25 -16.25,16.25 -8.974627,0 -16.25,-7.27537 -16.25,-16.25 0,-8.97463 7.275373,-16.25 16.25,-16.25 8.974627,0 16.25,7.27537 16.25,16.25 z"
               sodipodi:ry="16.25"
               sodipodi:rx="16.25"
               sodipodi:cy="698.9693"
               sodipodi:cx="38.75"
               id="path4104-4"
               style="fill:#000000;fill-opacity:1;stroke:none"
               sodipodi:type="arc" />
          </g>
          <g
             transform="matrix(0.51537022,0,0,0.51537022,295.21576,41.92096)"
             id="g4175">
            <path
               sodipodi:type="arc"
               style="fill:#000000;fill-opacity:1;stroke:none"
               id="path4102-9"
               sodipodi:cx="38.75"
               sodipodi:cy="698.9693"
               sodipodi:rx="16.25"
               sodipodi:ry="16.25"
               d="m 55,698.9693 c 0,8.97463 -7.275373,16.25 -16.25,16.25 -8.974627,0 -16.25,-7.27537 -16.25,-16.25 0,-8.97463 7.275373,-16.25 16.25,-16.25 8.974627,0 16.25,7.27537 16.25,16.25 z"
               transform="matrix(1.0769231,0,0,1.0769231,10.912087,265.34029)" />
            <path
               transform="matrix(1.0769231,0,0,1.0769231,109.91209,265.34029)"
               d="m 55,698.9693 c 0,8.97463 -7.275373,16.25 -16.25,16.25 -8.974627,0 -16.25,-7.27537 -16.25,-16.25 0,-8.97463 7.275373,-16.25 16.25,-16.25 8.974627,0 16.25,7.27537 16.25,16.25 z"
               sodipodi:ry="16.25"
               sodipodi:rx="16.25"
               sodipodi:cy="698.9693"
               sodipodi:cx="38.75"
               id="path4104-0"
               style="fill:#000000;fill-opacity:1;stroke:none"
               sodipodi:type="arc" />
          </g>
        </g>
        <rect
           style="fill:#000000;fill-opacity:1"
           id="rect3825-8"
           width="2"
           height="60"
           x="400.68878"
           y="-448"
           transform="matrix(0,1,-1,0,0,0)" />
        <rect
           y="-448"
           x="441.9184"
           height="60"
           width="2"
           id="rect3845-5"
           style="fill:#000000;fill-opacity:1"
           transform="matrix(0,1,-1,0,0,0)" />
        <rect
           style="fill:#000000;fill-opacity:1"
           id="rect3847-6"
           width="2"
           height="60"
           x="483.14801"
           y="-448"
           transform="matrix(0,1,-1,0,0,0)" />
        <rect
           y="-448"
           x="565.60724"
           height="60"
           width="2"
           id="rect3849-1"
           style="fill:#000000;fill-opacity:1"
           transform="matrix(0,1,-1,0,0,0)" />
        <rect
           style="fill:#000000;fill-opacity:1"
           id="rect3851-1"
           width="2"
           height="60"
           x="524.37762"
           y="-448"
           transform="matrix(0,1,-1,0,0,0)" />
        <text
           xml:space="preserve"
           style="font-size:40px;font-style:normal;font-weight:normal;line-height:125%;letter-spacing:0px;word-spacing:0px;fill:#000000;fill-opacity:1;stroke:none;font-family:Sans"
           x="454.05664"
           y="573.75079"
           id="text3871-0"
           sodipodi:linespacing="125%"><tspan
             sodipodi:role="line"
             id="tspan3873-6"
             x="454.05664"
             y="573.75079"
             style="font-size:20px">DCD</tspan></text>
        <text
           xml:space="preserve"
           style="font-size:40px;font-style:normal;font-weight:normal;line-height:125%;letter-spacing:0px;word-spacing:0px;fill:#000000;fill-opacity:1;stroke:none;font-family:Sans"
           x="209.85742"
           y="573.75079"
           id="text3875-3"
           sodipodi:linespacing="125%"><tspan
             sodipodi:role="line"
             id="tspan3877-3"
             x="209.85742"
             y="573.75079"
             style="font-size:20px">SIN</tspan></text>
        <text
           xml:space="preserve"
           style="font-size:20px;font-style:normal;font-weight:normal;line-height:125%;letter-spacing:0px;word-spacing:0px;fill:#000000;fill-opacity:1;stroke:none;font-family:Sans"
           x="454.98438"
           y="532.53094"
           id="text3879-5"
           sodipodi:linespacing="125%"><tspan
             sodipodi:role="line"
             id="tspan3881-1"
             x="454.98438"
             y="532.53094">SOUT</tspan></text>
        <text
           xml:space="preserve"
           style="font-size:20px;font-style:normal;font-weight:normal;line-height:125%;letter-spacing:0px;word-spacing:0px;fill:#000000;fill-opacity:1;stroke:none;font-family:Sans"
           x="204.64258"
           y="532.5163"
           id="text3879-2-8"
           sodipodi:linespacing="125%"><tspan
             sodipodi:role="line"
             id="tspan3881-2-90"
             x="204.64258"
             y="532.5163">DTR</tspan></text>
        <text
           xml:space="preserve"
           style="font-size:20px;font-style:normal;font-weight:normal;line-height:125%;letter-spacing:0px;word-spacing:0px;fill:#000000;fill-opacity:1;stroke:none;font-family:Sans"
           x="454.7793"
           y="491.29156"
           id="text3879-2-3-3"
           sodipodi:linespacing="125%"><tspan
             sodipodi:role="line"
             id="tspan3881-2-9-3"
             x="454.7793"
             y="491.29156">GND</tspan></text>
        <text
           xml:space="preserve"
           style="font-size:40px;font-style:normal;font-weight:normal;line-height:125%;letter-spacing:0px;word-spacing:0px;fill:#000000;fill-opacity:1;stroke:none;font-family:Sans"
           x="204.05664"
           y="491.29156"
           id="text3871-3-8"
           sodipodi:linespacing="125%"><tspan
             sodipodi:role="line"
             id="tspan3873-9-0"
             x="204.05664"
             y="491.29156"
             style="font-size:20px">DSR</tspan></text>
        <text
           xml:space="preserve"
           style="font-size:40px;font-style:normal;font-weight:normal;line-height:125%;letter-spacing:0px;word-spacing:0px;fill:#000000;fill-opacity:1;stroke:none;font-family:Sans"
           x="454.05664"
           y="450.06195"
           id="text3871-3-4-0"
           sodipodi:linespacing="125%"><tspan
             sodipodi:role="line"
             id="tspan3873-9-7-1"
             x="454.05664"
             y="450.06195"
             style="font-size:20px">RTS</tspan></text>
        <text
           xml:space="preserve"
           style="font-size:40px;font-style:normal;font-weight:normal;line-height:125%;letter-spacing:0px;word-spacing:0px;fill:#000000;fill-opacity:1;stroke:none;font-family:Sans"
           x="207.95312"
           y="450.06195"
           id="text3871-3-4-1-8"
           sodipodi:linespacing="125%"><tspan
             sodipodi:role="line"
             id="tspan3873-9-7-2-5"
             x="207.95312"
             y="450.06195"
             style="font-size:20px">CTS</tspan></text>
        <text
           xml:space="preserve"
           style="font-size:40px;font-style:normal;font-weight:normal;line-height:125%;letter-spacing:0px;word-spacing:0px;fill:#000000;fill-opacity:1;stroke:none;font-family:Sans"
           x="454.05664"
           y="408.82745"
           id="text3871-3-4-1-1-3"
           sodipodi:linespacing="125%"><tspan
             sodipodi:role="line"
             id="tspan3873-9-7-2-7-3"
             x="454.05664"
             y="408.82745"
             style="font-size:20px">RI</tspan></text>
        <rect
           transform="matrix(0,1,-1,0,0,0)"
           style="fill:#000000;fill-opacity:1"
           id="rect4446"
           width="2"
           height="60"
           x="441.9184"
           y="-308" />
        <rect
           transform="matrix(0,1,-1,0,0,0)"
           y="-308"
           x="483.14801"
           height="60"
           width="2"
           id="rect4448"
           style="fill:#000000;fill-opacity:1" />
        <rect
           transform="matrix(0,1,-1,0,0,0)"
           style="fill:#000000;fill-opacity:1"
           id="rect4450"
           width="2"
           height="60"
           x="565.60724"
           y="-308" />
        <rect
           transform="matrix(0,1,-1,0,0,0)"
           y="-308"
           x="524.37762"
           height="60"
           width="2"
           id="rect4452"
           style="fill:#000000;fill-opacity:1" />
      </g>
      <text
         sodipodi:linespacing="125%"
         id="text3863-1"
         y="431.1843"
         x="313.13867"
         style="font-size:23.41934204px;font-style:normal;font-weight:normal;line-height:125%;letter-spacing:0px;word-spacing:0px;fill:#000000;fill-opacity:1;stroke:none;font-family:Sans"
         xml:space="preserve"><tspan
           id="tspan3867-5"
           y="431.1843"
           x="313.13867"
           sodipodi:role="line">JCOM1 pins</tspan></text>
    </g>
  </g>
</svg>
