<?xml version="1.0" encoding="UTF-8" standalone="no"?>
<!-- Created with Inkscape (http://www.inkscape.org/) -->

<svg
   xmlns:dc="http://purl.org/dc/elements/1.1/"
   xmlns:cc="http://creativecommons.org/ns#"
   xmlns:rdf="http://www.w3.org/1999/02/22-rdf-syntax-ns#"
   xmlns:svg="http://www.w3.org/2000/svg"
   xmlns="http://www.w3.org/2000/svg"
   xmlns:sodipodi="http://sodipodi.sourceforge.net/DTD/sodipodi-0.dtd"
   xmlns:inkscape="http://www.inkscape.org/namespaces/inkscape"
   id="svg4118"
   sodipodi:docname="serial_db9_plug.svg"
   viewBox="0 0 283.99999 106.04575"
   version="1.1"
   inkscape:version="0.91 r13725"
   width="284"
   height="106.04575">
  <defs
     id="defs32" />
  <sodipodi:namedview
     id="base"
     bordercolor="#666666"
     inkscape:pageshadow="2"
     inkscape:window-y="-3"
     fit-margin-left="2"
     pagecolor="#ffffff"
     fit-margin-top="2"
     inkscape:window-maximized="0"
     inkscape:zoom="0.99"
     inkscape:window-x="51"
     inkscape:window-height="925"
     showgrid="false"
     borderopacity="1.0"
     inkscape:current-layer="layer1"
     inkscape:cx="153.9154"
     inkscape:cy="46.851465"
     fit-margin-right="2"
     fit-margin-bottom="2"
     inkscape:window-width="1304"
     inkscape:pageopacity="0.0"
     inkscape:document-units="px" />
  <g
     id="layer1"
     inkscape:label="Layer 1"
     inkscape:groupmode="layer"
     transform="translate(-409.43,-476.48463)">
    <g
       id="g3911"
       transform="matrix(2.1634987,0,0,2.1634987,255.2903,354.33442)">
      <rect
         id="rect3885"
         style="fill:#e0e0e0;stroke:#050505;stroke-width:1.5;stroke-linecap:square"
         rx="13.769"
         ry="13.769"
         height="45.667"
         width="127.92"
         y="58.133999"
         x="72.919998" />
      <g
         id="g3887">
        <g
           id="g3816"
           transform="translate(80,0)">
          <path
             id="rect2987"
             d="m 33.482,64.26 49.18,0 c 7.5117,0 14.275,5.7557 11.751,11.765 l -4.1657,9.9181 c -2.5239,6.0093 -4.2393,11.765 -11.751,11.765 l -40.849,0 c -7.5117,0 -8.5039,-5.7557 -11.028,-11.765 L 22.4536,76.025 C 19.9297,70.0157 25.9697,64.26 33.4816,64.26 Z"
             sodipodi:nodetypes="sssssssss"
             style="fill:#1a1a1a"
             inkscape:connector-curvature="0" />
          <path
             id="path3770"
             d="m 34.918,66.879 45.411,0 c 11.654,0 11.937,4.6132 10.09,9.5156 l -4.4869,11.911 c -1.9952,5.2965 -4.8892,6.5553 -9.45,6.5553 l -37.718,0 c -4.1807,0 -6.1688,-1.0328 -7.8813,-5.443 l -5.057,-13.023 c -1.8668,-4.8077 -0.78965,-9.5156 9.0918,-9.5156 z"
             sodipodi:nodetypes="sssssssss"
             style="fill:#b2b2b2"
             inkscape:connector-curvature="0" />
          <path
             id="path3768"
             sodipodi:nodetypes="sssssssss"
             style="fill:#4582ff;fill-opacity:1;stroke:#1e3332"
             inkscape:connector-curvature="0"
             d="m 37.331,68.6 41.489,0 c 10.33,0 10.416,5.4582 9.2188,8.6291 l -3.862,10.226 c -1.7292,4.5793 -4.7048,5.8513 -8.8716,5.8513 l -34.46,0 c -3.8196,0 -6.128,-0.33911 -7.9143,-4.8964 L 28.5487,77.229 c -1.6285,-4.1548 -0.24559,-8.6291 8.7823,-8.6291 z" />
          <g
             id="g3803">
            <g
               id="g3796">
              <circle
                 id="path3772"
                 style="fill:#707070;stroke:#0d1010;stroke-linecap:square"
                 transform="matrix(1.183,0,0,1.183,-104.16,-16.762)"
                 cx="119.27084"
                 cy="78.567711"
                 r="2.8211806" />
              <circle
                 id="path3774"
                 style="fill:#707070;stroke:#0d1010;stroke-linecap:square"
                 transform="matrix(1.183,0,0,1.183,-61.117,-16.762)"
                 cx="119.27084"
                 cy="78.567711"
                 r="2.8211806" />
              <circle
                 id="path3776"
                 style="fill:#707070;stroke:#0d1010;stroke-linecap:square"
                 transform="matrix(1.183,0,0,1.183,-71.878,-16.762)"
                 cx="119.27084"
                 cy="78.567711"
                 r="2.8211806" />
              <circle
                 id="path3778"
                 style="fill:#707070;stroke:#0d1010;stroke-linecap:square"
                 transform="matrix(1.183,0,0,1.183,-93.401,-16.762)"
                 cx="119.27084"
                 cy="78.567711"
                 r="2.8211806" />
              <circle
                 id="path3780"
                 style="fill:#707070;stroke:#0d1010;stroke-linecap:square"
                 transform="matrix(1.183,0,0,1.183,-82.64,-16.762)"
                 cx="119.27084"
                 cy="78.567711"
                 r="2.8211806" />
            </g>
            <g
               id="g3790">
              <circle
                 id="path3782"
                 style="fill:#707070;stroke:#0d1010;stroke-linecap:square"
                 transform="matrix(1.183,0,0,1.183,-66.498,-6.7618)"
                 cx="119.27084"
                 cy="78.567711"
                 r="2.8211806" />
              <circle
                 id="path3784"
                 style="fill:#707070;stroke:#0d1010;stroke-linecap:square"
                 transform="matrix(1.183,0,0,1.183,-77.259,-6.7618)"
                 cx="119.27084"
                 cy="78.567711"
                 r="2.8211806" />
              <circle
                 id="path3786"
                 style="fill:#707070;stroke:#0d1010;stroke-linecap:square"
                 transform="matrix(1.183,0,0,1.183,-98.782,-6.7618)"
                 cx="119.27084"
                 cy="78.567711"
                 r="2.8211806" />
              <circle
                 id="path3788"
                 style="fill:#707070;stroke:#0d1010;stroke-linecap:square"
                 transform="matrix(1.183,0,0,1.183,-88.02,-6.7618)"
                 cx="119.27084"
                 cy="78.567711"
                 r="2.8211806" />
            </g>
          </g>
        </g>
        <g
           id="g3837"
           transform="translate(-17.795,7.3211)">
          <circle
             id="path3835"
             style="fill:#818181;stroke:#090909;stroke-width:0.45849001;stroke-linecap:square"
             transform="matrix(3.2716,0,0,3.2716,-413.82,-199.42)"
             cx="188.97569"
             cy="83.472221"
             r="2.6041667" />
          <circle
             id="path3833"
             style="fill:#2b2b2b;stroke:#181818;stroke-width:0.72908002;stroke-linecap:square"
             transform="matrix(1.3716,0,0,1.3716,-54.77,-40.826)"
             cx="188.97569"
             cy="83.472221"
             r="2.6041667" />
        </g>
        <g
           id="g3879"
           transform="translate(-114.84,7.3211)">
          <circle
             id="path3881"
             style="fill:#818181;stroke:#090909;stroke-width:0.45849001;stroke-linecap:square"
             transform="matrix(3.2716,0,0,3.2716,-413.82,-199.42)"
             cx="188.97569"
             cy="83.472221"
             r="2.6041667" />
          <circle
             id="path3883"
             style="fill:#2b2b2b;stroke:#181818;stroke-width:0.72908002;stroke-linecap:square"
             transform="matrix(1.3716,0,0,1.3716,-54.77,-40.826)"
             cx="188.97569"
             cy="83.472221"
             r="2.6041667" />
        </g>
      </g>
    </g>
  </g>
  <metadata
     id="metadata30">
    <rdf:RDF>
      <cc:Work>
        <dc:format>image/svg+xml</dc:format>
        <dc:type
           rdf:resource="http://purl.org/dc/dcmitype/StillImage" />
        <cc:license
           rdf:resource="http://creativecommons.org/publicdomain/zero/1.0/" />
        <dc:publisher>
          <cc:Agent
             rdf:about="http://openclipart.org/">
            <dc:title>Openclipart</dc:title>
          </cc:Agent>
        </dc:publisher>
        <dc:title>Serial DB9 Female</dc:title>
        <dc:date>2012-12-05T11:09:15</dc:date>
        <dc:description>A Female DB 9 Serial Port</dc:description>
        <dc:source>https://openclipart.org/detail/173570/serial-db9-female-by-deusinvictus-173570</dc:source>
        <dc:creator>
          <cc:Agent>
            <dc:title>deusinvictus</dc:title>
          </cc:Agent>
        </dc:creator>
        <dc:subject>
          <rdf:Bag>
            <rdf:li>Computer Port</rdf:li>
            <rdf:li>DB 9</rdf:li>
            <rdf:li>DB9</rdf:li>
            <rdf:li>Serial</rdf:li>
          </rdf:Bag>
        </dc:subject>
        <dc:contributor>
          <cc:Agent>
            <dc:title>ps, wpclipart</dc:title>
          </cc:Agent>
        </dc:contributor>
      </cc:Work>
      <cc:License
         rdf:about="http://creativecommons.org/publicdomain/zero/1.0/">
        <cc:permits
           rdf:resource="http://creativecommons.org/ns#Reproduction" />
        <cc:permits
           rdf:resource="http://creativecommons.org/ns#Distribution" />
        <cc:permits
           rdf:resource="http://creativecommons.org/ns#DerivativeWorks" />
      </cc:License>
    </rdf:RDF>
  </metadata>
</svg>
